<svg width="145" height="37" viewBox="0 0 145 37" fill="none" xmlns="http://www.w3.org/2000/svg">
<path d="M0 8.13099L16.2625 0L32.525 8.13099L16.2625 16.2623L0 8.13099Z" fill="#0A0B0D"/>
<path d="M16.2617 16.2621L32.524 8.13086V28.0482L16.2617 36.1794V16.2621Z" fill="#0A0B0D"/>
<path d="M0.00390625 8.13086L16.2662 16.2621V36.1794L0.00390625 28.0482V8.13086Z" fill="#0A0B0D"/>
<path d="M0.945312 8.13128L5.5519 5.82812L10.1585 8.13128L5.5519 10.4347L0.945312 8.13128Z" fill="#F0563F"/>
<path d="M6.30078 5.45382L10.9074 3.15039L15.514 5.45382L10.9074 7.75725L6.30078 5.45382Z" fill="#F6A623"/>
<path d="M11.6562 2.77386L16.2628 0.470703L20.8694 2.77386L16.2628 5.07729L11.6562 2.77386Z" fill="#37C86B"/>
<path d="M6.30078 10.8093L10.9074 8.50586L15.514 10.8093L10.9074 13.1127L6.30078 10.8093Z" fill="#3E86F5"/>
<path d="M11.6562 8.13128L16.2628 5.82812L20.8694 8.13128L16.2628 10.4347L11.6562 8.13128Z" fill="#8B5CF6"/>
<path d="M17.0195 5.45382L21.6261 3.15039L26.2327 5.45382L21.6261 7.75725L17.0195 5.45382Z" fill="#F0563F"/>
<path d="M11.6562 13.4858L16.2628 11.1826L20.8694 13.4858L16.2628 15.7892L11.6562 13.4858Z" fill="#F6A623"/>
<path d="M17.0195 10.8093L21.6261 8.50586L26.2327 10.8093L21.6261 13.1127L17.0195 10.8093Z" fill="#37C86B"/>
<path d="M22.3672 8.13128L26.9738 5.82812L31.5804 8.13128L26.9738 10.4347L22.3672 8.13128Z" fill="#3E86F5"/>
<path d="M16.7344 16.6049L21.341 14.3018V19.9437L16.7344 22.2469V16.6049Z" fill="#2DA458"/>
<path d="M22.0977 13.9275L26.7042 11.624V17.266L22.0977 19.5694V13.9275Z" fill="#336EC9"/>
<path d="M27.4453 11.2475L32.0519 8.94434V14.5863L27.4453 16.8895V11.2475Z" fill="#724BCA"/>
<path d="M16.7344 23.1655L21.341 20.8623V26.504L16.7344 28.8074V23.1655Z" fill="#C54734"/>
<path d="M22.0977 20.488L26.7042 18.1846V23.8265L22.0977 26.13V20.488Z" fill="#CA881D"/>
<path d="M27.4453 17.81L32.0519 15.5068V21.1485L27.4453 23.452V17.81Z" fill="#2DA458"/>
<path d="M16.7344 29.7243L21.341 27.4209V33.0629L16.7344 35.3663V29.7243Z" fill="#336EC9"/>
<path d="M22.0977 27.0473L26.7042 24.7441V30.3861L22.0977 32.6893V27.0473Z" fill="#724BCA"/>
<path d="M27.4453 24.3708L32.0519 22.0674V27.7093L27.4453 30.0128V24.3708Z" fill="#C54734"/>
<path d="M0.476562 8.94434L5.08315 11.2475V16.8895L0.476562 14.5863V8.94434Z" fill="#533794"/>
<path d="M5.83984 11.624L10.4464 13.9275V19.5694L5.83984 17.266V11.624Z" fill="#903426"/>
<path d="M11.1836 14.3018L15.7902 16.6049V22.2469L11.1836 19.9437V14.3018Z" fill="#946415"/>
<path d="M0.476562 15.5068L5.08315 17.81V23.452L0.476562 21.1485V15.5068Z" fill="#217840"/>
<path d="M5.83984 18.1846L10.4464 20.488V26.13L5.83984 23.8265V18.1846Z" fill="#255093"/>
<path d="M11.1836 20.8623L15.7902 23.1655V28.8074L11.1836 26.504V20.8623Z" fill="#533794"/>
<path d="M0.476562 22.0674L5.08315 24.3708V30.0128L0.476562 27.7093V22.0674Z" fill="#903426"/>
<path d="M5.83984 24.7441L10.4464 27.0473V32.6893L5.83984 30.3861V24.7441Z" fill="#946415"/>
<path d="M11.1836 27.4209L15.7902 29.7243V35.3663L11.1836 33.0629V27.4209Z" fill="#217840"/>
<path d="M50.1483 12.8471V23.8851C50.1483 24.17 50.1876 24.3812 50.2662 24.5188C50.3546 24.6563 50.4873 24.7546 50.6641 24.8135L51.2241 24.9609C51.5189 25.0788 51.6662 25.2605 51.6662 25.5061C51.6662 25.9089 51.4108 26.1104 50.8999 26.1104H45.1967C44.9314 26.1104 44.7399 26.0612 44.622 25.963C44.5041 25.8549 44.4451 25.7125 44.4451 25.5356C44.4451 25.4079 44.4844 25.2949 44.563 25.1967C44.6514 25.0984 44.7792 25.0198 44.9462 24.9609L45.5504 24.7988C45.7272 24.7496 45.855 24.6612 45.9336 24.5335C46.022 24.396 46.0662 24.1798 46.0662 23.8851V15.2492C46.0662 15.0134 46.0269 14.8464 45.9483 14.7481C45.8795 14.6401 45.7665 14.5713 45.6093 14.5418L44.8135 14.4829C44.6465 14.4436 44.5237 14.3846 44.4451 14.306C44.3763 14.2274 44.342 14.1194 44.342 13.9818C44.342 13.8345 44.3862 13.7166 44.4746 13.6281C44.563 13.5299 44.73 13.4366 44.9756 13.3481L47.8494 12.3313C48.1932 12.2036 48.4683 12.1102 48.6746 12.0513C48.8908 11.9923 49.0922 11.9629 49.2788 11.9629C49.5638 11.9629 49.7799 12.0464 49.9273 12.2134C50.0746 12.3706 50.1483 12.5818 50.1483 12.8471ZM49.7062 16.0892L49.0873 15.4555L49.662 14.9397C50.8803 13.8099 51.9413 13.0239 52.8452 12.5818C53.7491 12.1299 54.6038 11.9039 55.4094 11.9039C56.6572 11.9039 57.6494 12.2969 58.3863 13.0829C59.133 13.8688 59.5063 14.9397 59.5063 16.2955V23.8556C59.5063 24.1503 59.5505 24.3714 59.6389 24.5188C59.7372 24.6563 59.8747 24.7546 60.0516 24.8135L60.5674 24.9609C60.8523 25.0886 60.9947 25.2703 60.9947 25.5061C60.9947 25.9089 60.7442 26.1104 60.2431 26.1104H54.6578C54.147 26.1104 53.8915 25.9089 53.8915 25.5061C53.8915 25.2605 54.034 25.0788 54.3189 24.9609L54.8936 24.8135C55.0803 24.7546 55.2129 24.6514 55.2915 24.504C55.3799 24.3567 55.4242 24.1307 55.4242 23.8261V16.885C55.4242 16.0204 55.2178 15.3769 54.8052 14.9545C54.4024 14.5222 53.8522 14.306 53.1547 14.306C52.7126 14.306 52.2557 14.4092 51.7841 14.6155C51.3125 14.8218 50.8164 15.146 50.2957 15.5882L49.7062 16.0892ZM59.0642 16.0892L58.4305 15.4555L59.0052 14.9397C60.1842 13.8492 61.1961 13.073 62.0411 12.6113C62.8958 12.1397 63.7162 11.9039 64.5021 11.9039C65.6811 11.9039 66.6046 12.3018 67.2727 13.0976C67.9408 13.8836 68.3436 14.9496 68.4811 16.2955L69.3359 23.8409C69.3653 24.1454 69.4194 24.3714 69.498 24.5188C69.5766 24.6563 69.7043 24.7546 69.8811 24.8135L70.4117 24.9609C70.5787 25.0198 70.7015 25.0984 70.7801 25.1967C70.8685 25.2949 70.9127 25.4079 70.9127 25.5356C70.9127 25.7125 70.8538 25.8549 70.7359 25.963C70.618 26.0612 70.4264 26.1104 70.1611 26.1104H64.4137C63.9028 26.1104 63.6474 25.9089 63.6474 25.5061C63.6474 25.2605 63.7948 25.0788 64.0895 24.9609L64.6642 24.8135C64.8509 24.7546 64.9934 24.6514 65.0916 24.504C65.1899 24.3567 65.2242 24.1307 65.1948 23.8261L64.4137 16.885C64.3155 16.0303 64.0944 15.3868 63.7505 14.9545C63.4165 14.5222 62.9204 14.306 62.2621 14.306C61.8691 14.306 61.4565 14.4141 61.0242 14.6303C60.5919 14.8464 60.1302 15.1608 59.6389 15.5734L59.0642 16.0892ZM79.8686 11.9039C81.362 11.9039 82.6785 12.2134 83.8181 12.8323C84.9578 13.4513 85.8469 14.311 86.4855 15.4113C87.1241 16.5018 87.4434 17.7741 87.4434 19.2282C87.4434 20.6036 87.1143 21.8415 86.4561 22.9419C85.7978 24.0324 84.889 24.8921 83.7297 25.5209C82.5802 26.1497 81.2441 26.464 79.7213 26.464C78.2279 26.464 76.9114 26.1546 75.7718 25.5356C74.6419 24.9167 73.7577 24.057 73.1191 22.9566C72.4805 21.8563 72.1612 20.5938 72.1612 19.1692C72.1612 17.7643 72.4854 16.5166 73.1338 15.4261C73.7921 14.3355 74.696 13.4759 75.8454 12.8471C77.0048 12.2183 78.3458 11.9039 79.8686 11.9039ZM80.8855 25.0346C81.5536 24.9363 82.089 24.6317 82.4918 24.1209C82.9045 23.6002 83.1648 22.8879 83.2729 21.984C83.381 21.0703 83.322 19.9699 83.096 18.6829C82.8701 17.4057 82.5459 16.3545 82.1234 15.5292C81.7009 14.6941 81.195 14.0948 80.6055 13.7313C80.0258 13.358 79.3921 13.2253 78.7044 13.3334C78.0363 13.4415 77.5009 13.7559 77.0981 14.2766C76.6953 14.7874 76.4398 15.4948 76.3318 16.3987C76.2237 17.3026 76.2826 18.398 76.5086 19.685C76.7248 20.9622 77.0441 22.0184 77.4665 22.8535C77.8988 23.6788 78.4048 24.2781 78.9844 24.6514C79.5641 25.0149 80.1978 25.1426 80.8855 25.0346ZM95.855 25.2261C96.5329 25.2261 97.0585 25.0591 97.4319 24.7251C97.8052 24.3812 97.9919 23.944 97.9919 23.4135C97.9919 23.0893 97.9133 22.7945 97.7561 22.5293C97.6087 22.2542 97.3287 22.0086 96.9161 21.7924C96.5133 21.5665 95.9238 21.3601 95.1477 21.1735C93.6641 20.8591 92.5146 20.4661 91.6992 19.9945C90.8838 19.5229 90.3139 18.9826 89.9897 18.3734C89.6753 17.7545 89.5181 17.0717 89.5181 16.325C89.5181 14.9692 89.9946 13.8934 90.9476 13.0976C91.9104 12.3018 93.2859 11.9039 95.074 11.9039C95.7322 11.9039 96.2677 11.958 96.6803 12.066C97.0929 12.1741 97.4319 12.2871 97.6971 12.405C97.9624 12.513 98.1884 12.5671 98.375 12.5671C98.5814 12.5671 98.7484 12.513 98.8761 12.405C99.0038 12.2871 99.1266 12.1741 99.2445 12.066C99.3722 11.9481 99.5344 11.8892 99.7308 11.8892C99.8684 11.8892 99.9912 11.9383 100.099 12.0365C100.207 12.125 100.301 12.292 100.379 12.5376L101.337 15.6029C101.435 15.9271 101.465 16.1924 101.426 16.3987C101.386 16.5952 101.263 16.7376 101.057 16.8261C100.851 16.9047 100.669 16.9047 100.512 16.8261C100.355 16.7475 100.207 16.6001 100.07 16.384C99.6179 15.5882 99.1365 14.9545 98.6256 14.4829C98.1245 14.0113 97.594 13.6724 97.034 13.466C96.4838 13.2499 95.9091 13.1418 95.3098 13.1418C94.4747 13.1418 93.8459 13.3187 93.4234 13.6724C93.0108 14.0162 92.8045 14.4731 92.8045 15.0429C92.8045 15.3966 92.8929 15.7159 93.0697 16.0008C93.2466 16.2759 93.5757 16.5313 94.0571 16.7671C94.5483 17.0029 95.2508 17.2289 96.1645 17.445C97.4221 17.7299 98.4193 18.0885 99.1561 18.5208C99.893 18.9531 100.423 19.4787 100.748 20.0977C101.072 20.7068 101.234 21.4142 101.234 22.2198C101.234 23.0647 101.018 23.8065 100.586 24.4451C100.153 25.0837 99.5491 25.5847 98.7729 25.9482C98.0066 26.3019 97.1175 26.4788 96.1056 26.4788C95.4768 26.4788 94.9659 26.4149 94.5729 26.2872C94.1897 26.1595 93.8704 26.0318 93.615 25.904C93.3694 25.7763 93.1336 25.7125 92.9076 25.7125C92.7111 25.7125 92.5392 25.7763 92.3918 25.904C92.2445 26.0219 92.102 26.1447 91.9645 26.2725C91.8269 26.4002 91.6697 26.464 91.4929 26.464C91.3553 26.464 91.2374 26.41 91.1392 26.3019C91.041 26.2037 90.9673 26.0367 90.9181 25.8009L90.3434 22.9124C90.2746 22.5489 90.2599 22.2787 90.2992 22.1019C90.3483 21.9152 90.4662 21.7826 90.6529 21.704C90.8494 21.6254 91.0213 21.6352 91.1687 21.7335C91.3259 21.8317 91.488 22.0086 91.655 22.264C92.2739 23.3251 92.942 24.0865 93.6592 24.5482C94.3764 25.0002 95.1084 25.2261 95.855 25.2261ZM112.581 24.283V23.9882L112.301 23.944V15.0871C112.301 14.3994 112.129 13.8688 111.785 13.4955C111.441 13.1123 110.955 12.9208 110.326 12.9208C109.736 12.9208 109.284 13.0485 108.97 13.3039C108.665 13.5495 108.513 13.8541 108.513 14.2176V15.5145C108.513 16.0941 108.317 16.5461 107.924 16.8703C107.531 17.1847 106.985 17.3419 106.288 17.3419C105.698 17.3419 105.246 17.1994 104.932 16.9145C104.628 16.6296 104.475 16.2366 104.475 15.7355C104.475 15.1264 104.726 14.532 105.227 13.9524C105.728 13.3629 106.465 12.8766 107.437 12.4934C108.42 12.1102 109.628 11.9187 111.063 11.9187C112.851 11.9187 114.182 12.2822 115.056 13.0092C115.931 13.7362 116.368 14.7187 116.368 15.9566V23.6198C116.368 23.9047 116.422 24.1159 116.53 24.2535C116.648 24.391 116.81 24.4598 117.016 24.4598C117.223 24.4598 117.38 24.4107 117.488 24.3124C117.606 24.2044 117.699 24.0914 117.768 23.9735C117.817 23.9145 117.871 23.8654 117.93 23.8261C117.989 23.777 118.058 23.7524 118.136 23.7524C118.244 23.7524 118.323 23.7966 118.372 23.8851C118.431 23.9637 118.461 24.0717 118.461 24.2093C118.461 24.5237 118.348 24.8577 118.122 25.2114C117.896 25.5553 117.557 25.85 117.105 26.0956C116.653 26.3412 116.088 26.464 115.41 26.464C114.545 26.464 113.858 26.2725 113.347 25.8893C112.836 25.4963 112.581 24.9609 112.581 24.283ZM103.842 23.0451C103.842 21.8366 104.382 20.8591 105.463 20.1124C106.543 19.3657 108.066 18.9924 110.031 18.9924C110.66 18.9924 111.225 19.0464 111.726 19.1545C112.237 19.2626 112.679 19.405 113.052 19.5819L112.743 20.4661C112.409 20.3089 112.065 20.1861 111.711 20.0977C111.367 20.0092 110.989 19.965 110.576 19.965C109.771 19.965 109.142 20.1763 108.69 20.5987C108.238 21.0212 108.012 21.6107 108.012 22.3672C108.012 23.1138 108.204 23.6886 108.587 24.0914C108.98 24.4844 109.486 24.6809 110.105 24.6809C110.625 24.6809 111.127 24.563 111.608 24.3272C112.089 24.0816 112.492 23.7475 112.816 23.3251L113.126 24.1061C112.595 24.8528 111.878 25.4325 110.974 25.8451C110.08 26.2577 109.132 26.464 108.13 26.464C106.863 26.464 105.831 26.1497 105.035 25.5209C104.239 24.8921 103.842 24.0668 103.842 23.0451ZM125.719 12.8471V23.8703C125.719 24.1651 125.758 24.3812 125.837 24.5188C125.925 24.6563 126.053 24.7496 126.22 24.7988L126.795 24.9461C126.981 25.0149 127.114 25.0984 127.192 25.1967C127.281 25.2851 127.325 25.3981 127.325 25.5356C127.325 25.7125 127.261 25.8549 127.134 25.963C127.016 26.0612 126.824 26.1104 126.559 26.1104H120.752C120.497 26.1104 120.305 26.0612 120.178 25.963C120.06 25.8549 120.001 25.7125 120.001 25.5356C120.001 25.4079 120.04 25.2949 120.119 25.1967C120.207 25.0984 120.34 25.0198 120.517 24.9609L121.121 24.7988C121.288 24.7496 121.411 24.6563 121.489 24.5188C121.578 24.3812 121.622 24.17 121.622 23.8851V15.2345C121.622 14.9987 121.583 14.8317 121.504 14.7334C121.435 14.6352 121.322 14.5713 121.165 14.5418L120.369 14.4829C120.202 14.4436 120.079 14.3846 120.001 14.306C119.932 14.2274 119.898 14.1194 119.898 13.9818C119.898 13.8345 119.942 13.7166 120.03 13.6281C120.129 13.5299 120.296 13.4366 120.531 13.3481L123.405 12.3313C123.769 12.1937 124.054 12.1004 124.26 12.0513C124.476 11.9923 124.658 11.9629 124.805 11.9629C125.11 11.9629 125.336 12.0464 125.483 12.2134C125.64 12.3706 125.719 12.5818 125.719 12.8471ZM123.361 9.75232C122.595 9.75232 121.976 9.55091 121.504 9.1481C121.032 8.73547 120.797 8.20002 120.797 7.54177C120.797 6.89335 121.032 6.37264 121.504 5.97965C121.976 5.57684 122.595 5.37544 123.361 5.37544C124.147 5.37544 124.776 5.57684 125.247 5.97965C125.719 6.37264 125.955 6.89335 125.955 7.54177C125.955 8.20002 125.719 8.73547 125.247 9.1481C124.776 9.55091 124.147 9.75232 123.361 9.75232ZM142.27 15.9124C142.27 16.4724 142.078 16.939 141.695 17.3124C141.312 17.6857 140.801 17.8724 140.162 17.8724C139.543 17.8724 139.067 17.7005 138.733 17.3566C138.409 17.0029 138.247 16.5461 138.247 15.9861V15.4555C138.247 14.7874 138.045 14.2569 137.642 13.8639C137.24 13.4611 136.689 13.2597 135.992 13.2597C135.383 13.2597 134.833 13.4464 134.341 13.8197C133.86 14.1931 133.477 14.7334 133.192 15.4408C132.917 16.1383 132.779 16.9734 132.779 17.9461C132.779 19.184 132.986 20.2303 133.398 21.085C133.811 21.9398 134.381 22.5882 135.108 23.0303C135.835 23.4626 136.665 23.6788 137.598 23.6788C138.433 23.6788 139.165 23.5068 139.794 23.163C140.423 22.8093 140.909 22.3131 141.253 21.6745C141.42 21.4977 141.553 21.3798 141.651 21.3208C141.749 21.2521 141.847 21.2177 141.946 21.2177C142.093 21.2177 142.196 21.2815 142.255 21.4093C142.324 21.537 142.353 21.6942 142.343 21.8808C142.285 22.7258 141.99 23.497 141.459 24.1945C140.929 24.8921 140.212 25.4472 139.308 25.8598C138.414 26.2626 137.382 26.464 136.213 26.464C134.828 26.464 133.595 26.1791 132.514 25.6093C131.433 25.0296 130.583 24.2191 129.964 23.1777C129.355 22.1265 129.051 20.8935 129.051 19.4787C129.051 18.0443 129.36 16.7573 129.979 15.6176C130.598 14.4681 131.463 13.5643 132.573 12.906C133.693 12.238 135.009 11.9039 136.522 11.9039C137.711 11.9039 138.733 12.0857 139.588 12.4492C140.452 12.8127 141.115 13.299 141.577 13.9081C142.039 14.5173 142.27 15.1853 142.27 15.9124Z" fill="#D6D6D0"/>
</svg>
